<mxfile host="app.diagrams.net" modified="2023-03-16T04:00:58.808Z" agent="5.0 (Windows)" etag="qrDOi24GNSTlPgBR-4jA" version="21.0.6" type="github">
  <diagram name="Page-1" id="8saAywyY5b6rUJdX81Al">
    <mxGraphModel dx="2250" dy="988" grid="0" gridSize="10" guides="1" tooltips="1" connect="1" arrows="1" fold="1" page="0" pageScale="1" pageWidth="850" pageHeight="1100" math="0" shadow="0">
      <root>
        <mxCell id="0" />
        <mxCell id="1" parent="0" />
        <mxCell id="5OpdW5CeZK_qTtSZ17dH-1" value="&lt;font style=&quot;font-size: 17px;&quot;&gt;&lt;font style=&quot;font-size: 18px;&quot;&gt;&lt;font style=&quot;font-size: 19px;&quot;&gt;&lt;font style=&quot;font-size: 20px;&quot;&gt;&lt;font style=&quot;font-size: 21px;&quot;&gt;&lt;font style=&quot;font-size: 22px;&quot;&gt;S&lt;/font&gt;&lt;/font&gt;&lt;/font&gt;&lt;/font&gt;&lt;/font&gt;&lt;/font&gt;" style="ellipse;whiteSpace=wrap;html=1;aspect=fixed;fontSize=16;" vertex="1" parent="1">
          <mxGeometry x="-839" y="-22" width="57" height="57" as="geometry" />
        </mxCell>
        <mxCell id="5OpdW5CeZK_qTtSZ17dH-2" value="&lt;font style=&quot;font-size: 17px;&quot;&gt;&lt;font style=&quot;font-size: 18px;&quot;&gt;&lt;font style=&quot;font-size: 19px;&quot;&gt;&lt;font style=&quot;font-size: 20px;&quot;&gt;&lt;font style=&quot;font-size: 21px;&quot;&gt;&lt;font style=&quot;font-size: 22px;&quot;&gt;C&lt;/font&gt;&lt;/font&gt;&lt;/font&gt;&lt;/font&gt;&lt;/font&gt;&lt;/font&gt;" style="ellipse;whiteSpace=wrap;html=1;aspect=fixed;fontSize=16;" vertex="1" parent="1">
          <mxGeometry x="-699" y="98" width="57" height="57" as="geometry" />
        </mxCell>
        <mxCell id="5OpdW5CeZK_qTtSZ17dH-3" value="" style="endArrow=classic;html=1;rounded=0;fontSize=12;startSize=8;endSize=8;curved=1;exitX=1;exitY=1;exitDx=0;exitDy=0;" edge="1" parent="1" source="5OpdW5CeZK_qTtSZ17dH-1" target="5OpdW5CeZK_qTtSZ17dH-2">
          <mxGeometry width="50" height="50" relative="1" as="geometry">
            <mxPoint x="-785" y="21" as="sourcePoint" />
            <mxPoint x="-693" y="111" as="targetPoint" />
          </mxGeometry>
        </mxCell>
        <mxCell id="5OpdW5CeZK_qTtSZ17dH-4" value="&lt;font style=&quot;font-size: 17px;&quot;&gt;&lt;font style=&quot;font-size: 18px;&quot;&gt;&lt;font style=&quot;font-size: 19px;&quot;&gt;&lt;font style=&quot;font-size: 20px;&quot;&gt;&lt;font style=&quot;font-size: 21px;&quot;&gt;&lt;font style=&quot;font-size: 22px;&quot;&gt;D&lt;/font&gt;&lt;/font&gt;&lt;/font&gt;&lt;/font&gt;&lt;/font&gt;&lt;/font&gt;" style="ellipse;whiteSpace=wrap;html=1;aspect=fixed;fontSize=16;" vertex="1" parent="1">
          <mxGeometry x="-558" y="228" width="57" height="57" as="geometry" />
        </mxCell>
        <mxCell id="5OpdW5CeZK_qTtSZ17dH-5" value="&lt;font style=&quot;font-size: 17px;&quot;&gt;&lt;font style=&quot;font-size: 18px;&quot;&gt;&lt;font style=&quot;font-size: 19px;&quot;&gt;&lt;font style=&quot;font-size: 20px;&quot;&gt;&lt;font style=&quot;font-size: 21px;&quot;&gt;&lt;font style=&quot;font-size: 22px;&quot;&gt;A&lt;/font&gt;&lt;/font&gt;&lt;/font&gt;&lt;/font&gt;&lt;/font&gt;&lt;/font&gt;" style="ellipse;whiteSpace=wrap;html=1;aspect=fixed;fontSize=16;" vertex="1" parent="1">
          <mxGeometry x="-802" y="228" width="57" height="57" as="geometry" />
        </mxCell>
        <mxCell id="5OpdW5CeZK_qTtSZ17dH-7" value="&lt;font style=&quot;font-size: 17px;&quot;&gt;&lt;font style=&quot;font-size: 18px;&quot;&gt;&lt;font style=&quot;font-size: 19px;&quot;&gt;&lt;font style=&quot;font-size: 20px;&quot;&gt;&lt;font style=&quot;font-size: 21px;&quot;&gt;&lt;font style=&quot;font-size: 22px;&quot;&gt;B&lt;/font&gt;&lt;/font&gt;&lt;/font&gt;&lt;/font&gt;&lt;/font&gt;&lt;/font&gt;" style="ellipse;whiteSpace=wrap;html=1;aspect=fixed;fontSize=16;" vertex="1" parent="1">
          <mxGeometry x="-802" y="380" width="57" height="57" as="geometry" />
        </mxCell>
        <mxCell id="5OpdW5CeZK_qTtSZ17dH-8" value="" style="endArrow=classic;html=1;rounded=0;fontSize=12;startSize=8;endSize=8;curved=1;exitX=1;exitY=1;exitDx=0;exitDy=0;" edge="1" parent="1" source="5OpdW5CeZK_qTtSZ17dH-2">
          <mxGeometry width="50" height="50" relative="1" as="geometry">
            <mxPoint x="-674" y="222" as="sourcePoint" />
            <mxPoint x="-548" y="237" as="targetPoint" />
          </mxGeometry>
        </mxCell>
        <mxCell id="5OpdW5CeZK_qTtSZ17dH-9" value="" style="endArrow=classic;html=1;rounded=0;fontSize=12;startSize=8;endSize=8;curved=1;exitX=0;exitY=1;exitDx=0;exitDy=0;entryX=0.754;entryY=0.053;entryDx=0;entryDy=0;entryPerimeter=0;" edge="1" parent="1" source="5OpdW5CeZK_qTtSZ17dH-2" target="5OpdW5CeZK_qTtSZ17dH-5">
          <mxGeometry width="50" height="50" relative="1" as="geometry">
            <mxPoint x="-674" y="222" as="sourcePoint" />
            <mxPoint x="-785" y="187" as="targetPoint" />
          </mxGeometry>
        </mxCell>
        <mxCell id="5OpdW5CeZK_qTtSZ17dH-10" value="" style="endArrow=classic;html=1;rounded=0;fontSize=12;startSize=8;endSize=8;curved=1;exitX=0.5;exitY=1;exitDx=0;exitDy=0;entryX=0.5;entryY=0;entryDx=0;entryDy=0;" edge="1" parent="1" source="5OpdW5CeZK_qTtSZ17dH-5" target="5OpdW5CeZK_qTtSZ17dH-7">
          <mxGeometry width="50" height="50" relative="1" as="geometry">
            <mxPoint x="-674" y="222" as="sourcePoint" />
            <mxPoint x="-752" y="359" as="targetPoint" />
          </mxGeometry>
        </mxCell>
        <mxCell id="5OpdW5CeZK_qTtSZ17dH-12" value="" style="ellipse;whiteSpace=wrap;html=1;aspect=fixed;fontSize=16;" vertex="1" parent="1">
          <mxGeometry x="-558" y="378" width="57" height="57" as="geometry" />
        </mxCell>
        <mxCell id="5OpdW5CeZK_qTtSZ17dH-13" value="&lt;font style=&quot;font-size: 17px;&quot;&gt;&lt;font style=&quot;font-size: 18px;&quot;&gt;&lt;font style=&quot;font-size: 19px;&quot;&gt;&lt;font style=&quot;font-size: 20px;&quot;&gt;&lt;font style=&quot;font-size: 21px;&quot;&gt;&lt;font style=&quot;font-size: 22px;&quot;&gt;q&lt;/font&gt;&lt;/font&gt;&lt;/font&gt;&lt;/font&gt;&lt;/font&gt;&lt;/font&gt;&lt;sub&gt;f&lt;/sub&gt;" style="ellipse;whiteSpace=wrap;html=1;aspect=fixed;fontSize=16;" vertex="1" parent="1">
          <mxGeometry x="-550" y="386" width="41" height="41" as="geometry" />
        </mxCell>
        <mxCell id="5OpdW5CeZK_qTtSZ17dH-14" value="" style="endArrow=classic;html=1;rounded=0;fontSize=12;startSize=8;endSize=8;curved=1;exitX=1;exitY=1;exitDx=0;exitDy=0;entryX=0.07;entryY=0.263;entryDx=0;entryDy=0;entryPerimeter=0;" edge="1" parent="1" source="5OpdW5CeZK_qTtSZ17dH-5" target="5OpdW5CeZK_qTtSZ17dH-12">
          <mxGeometry width="50" height="50" relative="1" as="geometry">
            <mxPoint x="-710" y="222" as="sourcePoint" />
            <mxPoint x="-589" y="354" as="targetPoint" />
          </mxGeometry>
        </mxCell>
        <mxCell id="5OpdW5CeZK_qTtSZ17dH-15" value="" style="endArrow=classic;html=1;rounded=0;fontSize=12;startSize=8;endSize=8;curved=1;exitX=0.912;exitY=0.263;exitDx=0;exitDy=0;exitPerimeter=0;entryX=0;entryY=1;entryDx=0;entryDy=0;" edge="1" parent="1" source="5OpdW5CeZK_qTtSZ17dH-7" target="5OpdW5CeZK_qTtSZ17dH-4">
          <mxGeometry width="50" height="50" relative="1" as="geometry">
            <mxPoint x="-710" y="222" as="sourcePoint" />
            <mxPoint x="-660" y="172" as="targetPoint" />
          </mxGeometry>
        </mxCell>
        <mxCell id="5OpdW5CeZK_qTtSZ17dH-16" value="" style="endArrow=classic;html=1;rounded=0;fontSize=12;startSize=8;endSize=8;curved=1;entryX=0.07;entryY=0.754;entryDx=0;entryDy=0;entryPerimeter=0;exitX=0.947;exitY=0.737;exitDx=0;exitDy=0;exitPerimeter=0;" edge="1" parent="1" source="5OpdW5CeZK_qTtSZ17dH-5" target="5OpdW5CeZK_qTtSZ17dH-4">
          <mxGeometry width="50" height="50" relative="1" as="geometry">
            <mxPoint x="-710" y="222" as="sourcePoint" />
            <mxPoint x="-660" y="172" as="targetPoint" />
          </mxGeometry>
        </mxCell>
        <mxCell id="5OpdW5CeZK_qTtSZ17dH-17" value="" style="endArrow=classic;html=1;rounded=0;fontSize=12;startSize=8;endSize=8;curved=1;exitX=0;exitY=0.474;exitDx=0;exitDy=0;exitPerimeter=0;entryX=0.947;entryY=0.333;entryDx=0;entryDy=0;entryPerimeter=0;" edge="1" parent="1" source="5OpdW5CeZK_qTtSZ17dH-4" target="5OpdW5CeZK_qTtSZ17dH-5">
          <mxGeometry width="50" height="50" relative="1" as="geometry">
            <mxPoint x="-710" y="222" as="sourcePoint" />
            <mxPoint x="-660" y="172" as="targetPoint" />
          </mxGeometry>
        </mxCell>
        <mxCell id="5OpdW5CeZK_qTtSZ17dH-18" value="" style="endArrow=classic;html=1;rounded=0;fontSize=12;startSize=8;endSize=8;curved=1;exitX=1;exitY=0.5;exitDx=0;exitDy=0;" edge="1" parent="1" source="5OpdW5CeZK_qTtSZ17dH-7">
          <mxGeometry width="50" height="50" relative="1" as="geometry">
            <mxPoint x="-710" y="222" as="sourcePoint" />
            <mxPoint x="-556" y="409" as="targetPoint" />
          </mxGeometry>
        </mxCell>
        <mxCell id="5OpdW5CeZK_qTtSZ17dH-24" value="" style="curved=1;endArrow=classic;html=1;rounded=0;fontSize=12;startSize=8;endSize=8;exitX=1;exitY=0.5;exitDx=0;exitDy=0;entryX=1;entryY=0;entryDx=0;entryDy=0;" edge="1" parent="1" source="5OpdW5CeZK_qTtSZ17dH-1" target="5OpdW5CeZK_qTtSZ17dH-4">
          <mxGeometry width="50" height="50" relative="1" as="geometry">
            <mxPoint x="-678" y="201" as="sourcePoint" />
            <mxPoint x="-628" y="151" as="targetPoint" />
            <Array as="points">
              <mxPoint x="-639" y="46" />
              <mxPoint x="-529" y="134" />
            </Array>
          </mxGeometry>
        </mxCell>
        <mxCell id="5OpdW5CeZK_qTtSZ17dH-25" value="" style="curved=1;endArrow=classic;html=1;rounded=0;fontSize=12;startSize=8;endSize=8;entryX=0;entryY=1;entryDx=0;entryDy=0;exitX=0;exitY=0.316;exitDx=0;exitDy=0;exitPerimeter=0;" edge="1" parent="1" source="5OpdW5CeZK_qTtSZ17dH-7" target="5OpdW5CeZK_qTtSZ17dH-1">
          <mxGeometry width="50" height="50" relative="1" as="geometry">
            <mxPoint x="-779" y="198" as="sourcePoint" />
            <mxPoint x="-729" y="148" as="targetPoint" />
            <Array as="points">
              <mxPoint x="-856" y="310" />
            </Array>
          </mxGeometry>
        </mxCell>
        <mxCell id="5OpdW5CeZK_qTtSZ17dH-26" value="" style="endArrow=classic;html=1;rounded=0;fontSize=12;startSize=8;endSize=8;curved=1;entryX=0.5;entryY=1;entryDx=0;entryDy=0;exitX=0;exitY=0.5;exitDx=0;exitDy=0;" edge="1" parent="1" source="5OpdW5CeZK_qTtSZ17dH-2" target="5OpdW5CeZK_qTtSZ17dH-1">
          <mxGeometry width="50" height="50" relative="1" as="geometry">
            <mxPoint x="-666" y="198" as="sourcePoint" />
            <mxPoint x="-616" y="148" as="targetPoint" />
          </mxGeometry>
        </mxCell>
        <mxCell id="5OpdW5CeZK_qTtSZ17dH-27" value="" style="endArrow=classic;html=1;rounded=0;fontSize=12;startSize=8;endSize=8;curved=1;entryX=0.5;entryY=1;entryDx=0;entryDy=0;" edge="1" parent="1" target="5OpdW5CeZK_qTtSZ17dH-2">
          <mxGeometry width="50" height="50" relative="1" as="geometry">
            <mxPoint x="-558" y="250" as="sourcePoint" />
            <mxPoint x="-616" y="148" as="targetPoint" />
          </mxGeometry>
        </mxCell>
        <mxCell id="5OpdW5CeZK_qTtSZ17dH-29" value="" style="endArrow=classic;html=1;rounded=0;fontSize=12;startSize=8;endSize=8;curved=1;entryX=0;entryY=0.5;entryDx=0;entryDy=0;" edge="1" parent="1" target="5OpdW5CeZK_qTtSZ17dH-1">
          <mxGeometry width="50" height="50" relative="1" as="geometry">
            <mxPoint x="-897" y="7" as="sourcePoint" />
            <mxPoint x="-812" y="148" as="targetPoint" />
          </mxGeometry>
        </mxCell>
      </root>
    </mxGraphModel>
  </diagram>
</mxfile>
